<?xml version="1.0" encoding="utf-8"?>
<!-- Generator: Adobe Illustrator 21.1.0, SVG Export Plug-In . SVG Version: 6.00 Build 0)  -->
<svg version="1.1" id="Layer_1" xmlns="http://www.w3.org/2000/svg" xmlns:xlink="http://www.w3.org/1999/xlink" x="0px" y="0px"
	 viewBox="0 0 50 200" style="enable-background:new 0 0 50 200;" xml:space="preserve">
<style type="text/css">
	.st0{fill:#FFFFFF;}
</style>
<path id="Facebook" class="st0" d="M32.6,197.5v-18.8h8l1.3-8h-9.4v-4c0-2.7,1.3-4,4-4h4v-8.2c-1.3,0-4.3,0-6.7,0
	c-6.7,0-9.4,4-9.4,10.7v5.4h-8v8h8v18.8L32.6,197.5L32.6,197.5z"/>
<path id="Twitter" class="st0" d="M49,110.2c-1.8,0.8-3.6,1.3-5.6,1.5c2-1.2,3.6-3.1,4.3-5.4c-1.9,1.1-4,1.9-6.2,2.4
	c-1.8-1.9-4.3-3.1-7.1-3.1c-5.4,0-9.8,4.4-9.8,9.8c0,0.8,0.1,1.5,0.3,2.2c-8.2-0.4-15.4-4.3-20.2-10.2c-0.8,1.4-1.3,3.1-1.3,4.9
	c0,3.4,1.7,6.4,4.3,8.1c-1.6-0.1-3.1-0.5-4.4-1.2v0.1c0,4.7,3.4,8.7,7.8,9.6c-0.8,0.2-1.7,0.3-2.6,0.3c-0.6,0-1.2-0.1-1.8-0.2
	c1.2,3.9,4.9,6.7,9.1,6.8c-3.3,2.6-7.6,4.2-12.1,4.2c-0.8,0-1.6,0-2.3-0.1c4.3,2.8,9.5,4.4,15,4.4c18,0,27.8-14.9,27.8-27.8
	c0-0.4,0-0.8,0-1.3C46.1,113.8,47.7,112.1,49,110.2z"/>
<path id="Github" class="st0" d="M25,52.4c-12.8,0-23.1,10.3-23.1,23.1c0,10.2,6.6,18.9,15.8,21.9c1.2,0.2,1.5-0.5,1.5-1.1
	c0-0.5,0-2.1,0-4c-6.4,1.4-7.8-3-7.8-3c-1-2.7-2.6-3.4-2.6-3.4C6.7,84.5,9,84.5,9,84.5c2.3,0.2,3.5,2.4,3.5,2.4
	c2.1,3.5,5.4,2.5,6.7,1.9c0.2-1.5,0.8-2.5,1.5-3.1c-5.1-0.6-10.5-2.6-10.5-11.4c0-2.5,0.9-4.6,2.4-6.2c-0.2-0.6-1-2.9,0.2-6.1
	c0,0,1.9-0.6,6.3,2.4c1.8-0.5,3.8-0.8,5.8-0.8s3.9,0.3,5.8,0.8c4.4-3,6.3-2.4,6.3-2.4c1.3,3.2,0.5,5.5,0.2,6.1
	c1.5,1.6,2.4,3.7,2.4,6.2c0,8.9-5.4,10.8-10.5,11.4c0.8,0.7,1.6,2.1,1.6,4.3c0,2.9,0,5.6,0,6.4c0,0.6,0.4,1.3,1.5,1.1
	C41.4,94.4,48,85.8,48,75.6C48.1,62.7,37.8,52.4,25,52.4z"/>
<path id="Instagram" class="st0" d="M25,14.3c-5.8,0-10.6,4.7-10.6,10.6S19.1,35.6,25,35.6S35.6,30.8,35.6,25S30.8,14.3,25,14.3z
	 M25,31.7c-3.7,0-6.8-3.1-6.8-6.8s3.1-6.8,6.8-6.8s6.8,3.1,6.8,6.8S28.7,31.7,25,31.7z M36.1,11.6c1.3,0,2.4,1.1,2.4,2.4
	s-1.1,2.4-2.4,2.4c-1.3,0-2.4-1.1-2.4-2.4S34.7,11.6,36.1,11.6z M42.3,7.8c-2.2-2.2-5.2-3.4-8.7-3.4H16.4c-7.2,0-12,4.8-12,12v17
	c0,3.6,1.2,6.7,3.5,8.9c2.2,2.2,5.2,3.2,8.6,3.2h17c3.6,0,6.6-1.2,8.7-3.2c2.2-2.2,3.4-5.2,3.4-8.8V16.4
	C45.6,12.9,44.5,9.9,42.3,7.8z M42,33.6c0,2.6-0.9,4.7-2.4,6.1s-3.6,2.2-6.1,2.2h-17c-2.5,0-4.6-0.7-6.1-2.2s-2.2-3.6-2.2-6.2v-17
	c0-2.5,0.7-4.6,2.2-6.1C11.8,9,14,8.2,16.5,8.2h17.1c2.5,0,4.6,0.7,6.1,2.2c1.4,1.5,2.2,3.6,2.2,6v17.2H42z"/>
</svg>
